# xmcd
#
# Track frame offsets:
#	183
#	19900
#	31940
#	47568
#	59023
#	74040
#	88265
#	104075
#	116305
#	130688
#	143273
#	153848
#	172510
#	186263
#	205065
#	222943
#	237708
#
# Disc length: 3391 seconds
#
# Revision: 1
# Processed by: cddbd v1.5.2PL0 Copyright (c) Steve Scherf et al.
# Submitted via: audiograbber 1.81.02
#
DISCID=ef0d3d11
DTITLE=Vilaine Manière - Cajuns De Louisiane
DYEAR=1989
DGENRE=Country
TTITLE0=Jolie Blonde
TTITLE1=Bayou Pompon
TTITLE2=La Valse Du Dimanche Après-Midi
TTITLE3=Madame Bosso
TTITLE4=La Valse A Reno
TTITLE5=Jounes Gens De La Campagne
TTITLE6=La Valse A Belizaire
TTITLE7=Pauvr' Hobo
TTITLE8=Mon Cour T'Appelle
TTITLE9=Mon Chapeau
TTITLE10=La Valse du Vacher
TTITLE11=Madame Sosthène
TTITLE12=Ton Papa M'A Jete Dehors
TTITLE13=T'En As Eu, T'En Auras Plus
TTITLE14=La Valse Criminelle
TTITLE15=Les Dégos
TTITLE16=La Valse A Michel Hinedenoch
EXTD=
EXTT0=
EXTT1=
EXTT2=
EXTT3=
EXTT4=
EXTT5=
EXTT6=
EXTT7=
EXTT8=
EXTT9=
EXTT10=
EXTT11=
EXTT12=
EXTT13=
EXTT14=
EXTT15=
EXTT16=
PLAYORDER=
